<svg xmlns="http://www.w3.org/2000/svg" width="784.57" height="122.34" viewBox="0 0 784.57 122.34"><defs><style>.cls-1{fill:#ffc100;}.cls-2{fill:#39424d;}</style></defs><title>资源 2</title><g id="图层_2" data-name="图层 2"><g id="图层_1-2" data-name="图层 1"><path d="M104.3,48l15.82-27.4a2.86,2.86,0,0,0-2.48-4.3H86a2.87,2.87,0,0,0-2.48,4.3L99.34,48A2.86,2.86,0,0,0,104.3,48Z"/><path class="cls-1" d="M97,116,40.3,17.78a2.86,2.86,0,0,0-2.48-1.44H2.87a2.87,2.87,0,0,0-2.48,4.3l56.69,98.19a2.86,2.86,0,0,0,2.48,1.43h35A2.87,2.87,0,0,0,97,116Z"/><path d="M184.88,95.15a27,27,0,0,1,3-53.87,26.79,26.79,0,0,1,15.44,4.88,2.86,2.86,0,0,0,4.47-2.37V20.07a2.86,2.86,0,0,0-1.87-2.7,54.16,54.16,0,0,0-24.15-2.77A53.36,53.36,0,0,0,161.9,21a3,3,0,0,0-1.11,1.11L134.28,68a2.94,2.94,0,0,0-.4,1.53,54,54,0,0,0,72.06,49.71,2.84,2.84,0,0,0,1.87-2.7V92.83a2.86,2.86,0,0,0-4.44-2.41A26.85,26.85,0,0,1,184.88,95.15Z"/><path d="M258.87,105a60.57,60.57,0,0,0,12.79-12.54A86.78,86.78,0,0,0,279.44,80a54.15,54.15,0,0,0,3.87-9.43c.67-2.49,1-3.78,1-3.87l9.5,1.78a21.72,21.72,0,0,1-.57,2.4c-.38,1.44-1,3.3-1.84,5.58s-2,4.89-3.35,7.85a72.81,72.81,0,0,1-5.32,9.24,88.56,88.56,0,0,1-7.67,9.75,69.77,69.77,0,0,1-10.38,9.37Zm54.58-39.77v49.52h-9.76V65.22H259.75V55.47h43.94V37.87H265.2V28.25h38.49V17.48h9.76V28.25h38.49v9.62H313.45v17.6h43.94v9.75Zm18.86,1.52q0,.14,1.08,3.93a57.54,57.54,0,0,0,3.93,9.5,84.26,84.26,0,0,0,7.78,12.34A62.6,62.6,0,0,0,357.77,105l-5.7,7.72A70.21,70.21,0,0,1,337.44,98.4a96.75,96.75,0,0,1-8.86-14.05,60.65,60.65,0,0,1-4.43-11c-.81-3-1.21-4.62-1.21-4.87Z"/><path d="M385.12,107.77c.84-3.79,1.63-7.76,2.34-11.9s1.38-8.19,2-12.16,1.14-7.72,1.64-11.27.91-6.67,1.21-9.37.52-4.85.69-6.46.26-2.44.26-2.53l9.62.89q0,.51-.57,5.82t-1.65,13.3q-1.06,8-2.59,17.47t-3.55,18.37Zm34.19-24.94-5.82-10.26v42.8h-9.63V52.43H387V42.81h16.84V30.53H387.91V20.78h27a9.93,9.93,0,0,0,2.72-.38c.89-.26,1.67-.51,2.35-.76a22.1,22.1,0,0,0,2.4-1.14l5.07,8.23c-.17.08-.62.34-1.33.76a18,18,0,0,1-2.79,1.26c-1.14.43-2.43.83-3.86,1.21a17.8,17.8,0,0,1-4.56.57h-1.39V42.81h12.28v9.62H413.49v.76L427.67,78Zm65.35,6.33H470.47v26.21h-9.62V89.16H427.54V79.53h33.31V17.86h9.62V79.53h14.19ZM452,45.22,429.82,34.71,434,26l22.16,10.51Zm0,24.18L429.82,58.89,434,50.16l22.16,10.51Z"/><path d="M509.48,80a5,5,0,0,1,1.26-3.29A60.88,60.88,0,0,0,516,70.29q2.71-3.8,5.25-8l-9-3.16a4.58,4.58,0,0,1-3.16-4.56V52.81a4.54,4.54,0,0,1,1.14-3.16,38.07,38.07,0,0,0,4.75-7q2.46-4.5,4.81-9.31c1.56-3.2,3-6.29,4.24-9.24s2.24-5.28,2.91-7l8.87,3.55c-.09.25-.57,1.48-1.46,3.67s-2.05,4.88-3.48,8-3,6.5-4.81,10a92,92,0,0,1-5.45,9.43l5.7,2c1.18-2.2,2.28-4.26,3.29-6.21s1.9-3.67,2.66-5.19,1.37-2.72,1.84-3.61a9.81,9.81,0,0,0,.69-1.45l8.74,4.17c-.08.26-.72,1.57-1.9,3.93s-2.7,5.28-4.56,8.74-4,7.15-6.33,11.08-4.77,7.62-7.22,11.08h2a18.41,18.41,0,0,0,4-.44c1.31-.3,2.47-.62,3.48-1,1.27-.43,2.49-.89,3.67-1.4l4.18,8.74a11.76,11.76,0,0,0-1.52.63,26.25,26.25,0,0,1-3.54,1.27q-2.16.63-4.81,1.2a26,26,0,0,1-5.45.57H514.29a4.75,4.75,0,0,1-4.81-4.81Zm96.75-30.9A4.76,4.76,0,0,1,601.41,54H553.55V83a68,68,0,0,1-.95,11.4q-1,5.58-2.16,9.94t-2.21,7.16c-.68,1.85-1.06,2.87-1.14,3l-8.87-3.68c0-.08.32-1,.95-2.66s1.33-3.92,2.09-6.71a44.23,44.23,0,0,1-7.6,2.91,54.28,54.28,0,0,1-7.4,1.52,63.29,63.29,0,0,1-7.54.57q-3.79.07-8,.07l.89-9.63q7.22,0,13.68-.63a34.46,34.46,0,0,0,13-4.18l3.55,6.84c.58-2.45,1.07-5,1.45-7.73a59,59,0,0,0,.57-8.23V30a4.75,4.75,0,0,1,4.81-4.81h22.16L569,19.64l9.11-3.17,3,8.74h20.26A4.76,4.76,0,0,1,606.23,30Zm-9.76-14.31H553.55v9.5h42.92Zm5.7,25.84a4.54,4.54,0,0,1,4.56,4.55v35.72a21.61,21.61,0,0,1-1,6.9,24.69,24.69,0,0,1-2.28,5,18.59,18.59,0,0,1-2.34,3.1l-1.21,1.21-5.82-7.1a12.69,12.69,0,0,0,1.84-2.28,12.33,12.33,0,0,0,1.2-2.85,14.27,14.27,0,0,0,.5-4V91.18h-5.19v21.41H583.3V91.18h-4.68v21.41H569.5V91.18h-4.81V115h-9.12V65.22a4.54,4.54,0,0,1,4.56-4.55ZM569.5,82.07V69.78h-4.81V82.07Zm13.8,0V69.78h-4.68V82.07Zm14.31,0V69.78h-5.19V82.07Z"/><path d="M635.1,108.66q1.26-5.7,2.34-11.9t2-12.16q.89-6,1.59-11.27T642.13,64q.43-4.05,1-9l9.62.88c0,.17-.08,1.12-.25,2.85s-.43,4-.76,6.71-.74,5.91-1.21,9.5-1,7.39-1.58,11.4-1.24,8.1-2,12.28-1.5,8.21-2.34,12.1Zm33.18-25L663,74v42.17h-9.63V53.32h-16.2V43.7h16.2V31.29H638V21.66h22.92a20.73,20.73,0,0,0,3.93-.38,31.37,31.37,0,0,0,3.61-.88c1-.34,2.3-.81,3.73-1.4l3.8,8.87a8.23,8.23,0,0,0-1.2.44c-.72.3-1.69.63-2.91,1s-2.6.74-4.12,1.08a40.67,40.67,0,0,1-4.81.76V43.7h12v9.62H663v.89L676.76,79ZM737.8,103.6v9.62H671.19V103.6h28.49V91.18H678.41V81.56h21.27V69.28H675.75V59.53h57.62v9.75H709.31V81.56h21.27v9.62H709.31V103.6ZM683.35,53.32a4.76,4.76,0,0,1-4.82-4.81v-22a4.78,4.78,0,0,1,4.82-4.81h42.29a4.78,4.78,0,0,1,4.82,4.81v22a4.76,4.76,0,0,1-4.82,4.81Zm4.81-9.62h32.67V31.29H688.16Z"/><path class="cls-2" d="M766.09,2.36h-3.88V14.27h-2.7V2.36h-3.86V0h10.44Z"/><path class="cls-2" d="M770.18,0h4.36l2.8,8.43h.12L780.34,0h4.23V14.27h-2.65V2.63h-.12l-3.07,8.76H776l-3-8.76h-.13V14.27h-2.63Z"/></g></g></svg>